D:\school\WTK\thesis\model\3dpredictsim\Results\Batchsim_tmt_linear_v2\Pog_s1_tmt_aCst_d05_k2000_ig24_act_GRF.mot
nRows=10
nColumns=19

name D:\school\WTK\thesis\model\3dpredictsim\Results\Batchsim_tmt_linear_v2\Pog_s1_tmt_aCst_d05_k2000_ig24_act_GRF.mot
datacolumns 19
datarows 10
range 0.5803296142 0.6847889447
endheader
time 	ground_force_vx	ground_force_vy	ground_force_vz	ground_force_px	ground_force_py	ground_force_pz	1_ground_force_vx	1_ground_force_vy	1_ground_force_vz	1_ground_force_px	1_ground_force_py	1_ground_force_pz	ground_torque_x	ground_torque_y	ground_torque_z	1_ground_torque_x	1_ground_torque_y	1_ground_torque_z
        0.5803296142	       47.3780775233	      266.0135664961	       10.3078016306	        0.3829542584	        0.0000000000	        0.0405538175	      -71.5126806541	       54.7651558328	       -8.3351163837	        1.0594947648	        0.0000000000	       -0.0335399302	        0.0000000000	        0.0000000000	        0.0000000000	        0.0000000000	        0.0000000000	        0.0000000000	
        0.5919362065	       31.0871521968	      217.9053930970	       12.5903592975	        0.3951230174	        0.0000000000	        0.0374762836	     -130.5684273239	      113.5701911739	      -16.5241218380	        1.0525571097	        0.0000000000	       -0.0384094517	        0.0000000000	        0.0000000000	        0.0000000000	        0.0000000000	        0.0000000000	        0.0000000000	
        0.6035427987	       35.2872286889	      182.7697133622	       15.6063122539	        0.3956911117	        0.0000000000	        0.0377143438	     -243.0453551984	      322.5647015110	      -25.8971207190	        1.0299859155	        0.0000000000	       -0.0487891403	        0.0000000000	        0.0000000000	        0.0000000000	        0.0000000000	        0.0000000000	        0.0000000000	
        0.6151493910	       33.3852804435	      140.1725668785	       19.7443313933	        0.3962182937	        0.0000000000	        0.0381100158	     -181.1419106152	      506.2834874690	        1.3973600341	        1.0087412577	        0.0000000000	       -0.0562821061	        0.0000000000	        0.0000000000	        0.0000000000	        0.0000000000	        0.0000000000	        0.0000000000	
        0.6267559833	       23.6565172585	       90.3763029546	       17.6722449412	        0.3965660750	        0.0000000000	        0.0382827365	     -177.1444643894	      709.0765079442	       11.6537839325	        0.9988107459	        0.0000000000	       -0.0594044453	        0.0000000000	        0.0000000000	        0.0000000000	        0.0000000000	        0.0000000000	        0.0000000000	
        0.6383625756	        6.1385816204	       33.9867062502	        8.7905503861	        0.3961720989	        0.0000000000	        0.0382904426	     -190.3884638696	      890.7930492417	       20.8209356378	        0.9917727467	        0.0000000000	       -0.0616017906	        0.0000000000	        0.0000000000	        0.0000000000	        0.0000000000	        0.0000000000	        0.0000000000	
        0.6499691679	        0.2155033594	       -0.2252945480	       -0.0290537398	        0.0000000000	        0.0000000000	        0.0000000000	     -188.9470707211	      957.1419880147	       23.9012004167	        0.9875084264	        0.0000000000	       -0.0627508013	        0.0000000000	        0.0000000000	        0.0000000000	        0.0000000000	        0.0000000000	        0.0000000000	
        0.6615757602	        0.0087885515	       -0.0070643089	        0.0000752106	        0.0000000000	        0.0000000000	        0.0000000000	     -170.7583942919	      942.7986858984	       22.6928035364	        0.9840054939	        0.0000000000	       -0.0634174812	        0.0000000000	        0.0000000000	        0.0000000000	        0.0000000000	        0.0000000000	        0.0000000000	
        0.6731823524	        0.1807651518	       -0.1206981711	        0.0064938494	        0.0000000000	        0.0000000000	        0.0000000000	     -148.3968676596	      882.0222700957	       21.8287567465	        0.9826934116	        0.0000000000	       -0.0637392716	        0.0000000000	        0.0000000000	        0.0000000000	        0.0000000000	        0.0000000000	        0.0000000000	
        0.6847889447	       -1.8700617771	        1.0932997939	       -0.0830542480	        0.0000000000	        0.0000000000	        0.0000000000	     -129.9669988638	      810.8772879389	       19.4331371861	        0.9829073331	        0.0000000000	       -0.0639312913	        0.0000000000	        0.0000000000	        0.0000000000	        0.0000000000	        0.0000000000	        0.0000000000	
